<?xml version="1.0" encoding="UTF-8" standalone="no"?>
<!-- Generator: Adobe Illustrator 25.2.3, SVG Export Plug-In . SVG Version: 6.00 Build 0)  -->

<svg
   version="1.1"
   id="Layer_1"
   x="0px"
   y="0px"
   viewBox="0 0 128 128"
   style="enable-background:new 0 0 128 128;"
   xml:space="preserve"
   sodipodi:docname="logo.svg"
   inkscape:version="1.4.3 (0d15f750, 2025-12-25)"
   xmlns:inkscape="http://www.inkscape.org/namespaces/inkscape"
   xmlns:sodipodi="http://sodipodi.sourceforge.net/DTD/sodipodi-0.dtd"
   xmlns:xlink="http://www.w3.org/1999/xlink"
   xmlns="http://www.w3.org/2000/svg"
   xmlns:svg="http://www.w3.org/2000/svg"><defs
   id="defs3"><linearGradient
     id="linearGradient156"
     inkscape:collect="always"><stop
       style="stop-color:#660014;stop-opacity:1;"
       offset="0.32791325"
       id="stop156" /><stop
       style="stop-color:#2a8dff;stop-opacity:1;"
       offset="1"
       id="stop157" /></linearGradient><linearGradient
     inkscape:collect="always"
     xlink:href="#linearGradient156"
     id="linearGradient157"
     x1="19.858324"
     y1="24.584751"
     x2="98.826317"
     y2="103.55274"
     gradientUnits="userSpaceOnUse" /></defs><sodipodi:namedview
   id="namedview3"
   pagecolor="#ffffff"
   bordercolor="#666666"
   borderopacity="1.0"
   inkscape:showpageshadow="2"
   inkscape:pageopacity="0.0"
   inkscape:pagecheckerboard="0"
   inkscape:deskcolor="#d1d1d1"
   showgrid="false"
   inkscape:zoom="0.19548099"
   inkscape:cx="-1698.3749"
   inkscape:cy="-468.07622"
   inkscape:window-width="1386"
   inkscape:window-height="766"
   inkscape:window-x="-1"
   inkscape:window-y="25"
   inkscape:window-maximized="0"
   inkscape:current-layer="Layer_1" />
<g
   id="g3">
	<path
   style="fill:#1976D2;"
   d="M69.54,6.37l52.2,52c2.99,3.13,2.9,8.08-0.2,11.1l-52,52.2c-3.12,3.12-8.18,3.12-11.3,0l-52-52.2   c-3.04-3.04-3.13-7.95-0.2-11.1l52.2-52C61.36,3.25,66.42,3.25,69.54,6.37z"
   id="path1" />
	<path
   style="fill:url(#linearGradient157)"
   d="M64.64,10.47l48.5,48.4c2.79,2.89,2.71,7.49-0.18,10.28c-0.01,0.01-0.01,0.01-0.02,0.02l-48.4,48.5   c-2.9,2.9-7.59,2.9-10.49,0.01c0,0,0,0-0.01-0.01l-48.3-48.5c-2.9-2.79-2.99-7.39-0.21-10.29c0,0,0,0,0.01-0.01l48.6-48.4   C57.03,7.57,61.73,7.56,64.64,10.47C64.63,10.46,64.64,10.46,64.64,10.47z"
   id="path2" />
	
	
</g>
<path
   style="fill:#9ea2a3;stroke-width:1.01955"
   d="M 61.197839,13.108484 55.497031,8.8489874 c 0,0 -9.20594,5.7369596 -11.692602,7.3008716 -2.486662,1.563911 -4.404567,2.46768 -5.594992,3.937284 -1.706273,2.098313 -7.116086,20.212961 -7.116086,20.212961 l -15.647457,9.548503 c 0,0 -2.949602,-1.092379 -3.677085,-0.738732 -0.727482,0.35365 -9.1502589,15.290663 -9.1502589,15.290663 0,0 0.5467972,2.944521 1.9840692,3.228315 C 8.7955558,67.36951 9.0043792,68.04971 9.5995906,68.0104 10.274166,67.9711 12.602106,67.562444 12.602106,67.562444 L 33.42129,60.182995 50.523708,57.660305 66.17116,61.833354 96.870871,62.705686 113.68231,47.766013 77.136286,19.010481 Z"
   id="path2-0"
   sodipodi:nodetypes="ccscccsccccccccccc" /><path
   style="fill:#717a7c;stroke-width:1.01955"
   d="m 16.609864,56.819409 c 0,0 -0.568755,-0.96664 -0.992018,-1.681795 -0.423262,-0.715155 -0.171952,-5.289007 -0.171952,-5.289007 0,0 9.536614,3.347871 10.594771,3.89799 1.058154,0.55012 10.502181,4.047308 10.502181,4.047308 0,0 6.732508,-0.502968 9.073672,-0.589413 2.341166,-0.08645 6.388604,0.0393 6.388604,0.0393 l -1.560778,1.351723 c 0,0 -15.250643,2.947068 -17.948938,3.457894 -2.698295,0.502966 -19.985889,5.729104 -19.959434,5.532633 0.05291,-0.408661 4.497155,-4.18877 4.497155,-4.18877 z"
   id="path3-3" /><path
   style="fill:#717a7c;stroke-width:1.01955"
   d="m 85.627975,61.291093 -65.155848,6.114188 c 0,0 -3.148007,1.658216 -2.830561,2.098313 0.317445,0.440095 12.340723,1.768241 16.49398,2.082592 4.153255,0.314355 32.551467,1.265275 35.63334,1.139532 3.081876,-0.125734 34.575174,-1.076662 38.940074,-1.391009 4.36489,-0.314356 12.13927,-2.245315 13.10485,-2.504655 1.86498,-0.502968 2.07011,-4.394754 2.07011,-4.394754 0,0 3.67071,-6.562434 1.75278,-8.715761 -1.91791,-2.145465 -3.10559,-5.941661 -5.34093,-7.269807 -2.23535,-1.328145 -3.83582,-1.893982 -3.83582,-1.893982 0,0 -3.01575,-4.165191 -6.5341,-6.821481 -3.50513,-2.656291 -7.67163,-7.308733 -8.78271,-7.968875 -4.219366,-2.499113 -4.986535,-2.381232 -4.986535,-2.381232 l 2.645404,18.939829 c 0,0 -4.893978,5.815548 -6.600253,7.395177 -1.679822,1.595347 -6.573781,5.571925 -6.573781,5.571925 z"
   id="path4"
   sodipodi:nodetypes="ccsssscccsccccccc" /><path
   style="fill:#717a7c;stroke-width:1.01955"
   d="m 62.216312,1.6895753 -1.283011,15.4190627 15.091922,5.564067 c 0,0 4.536838,6.90793 4.748467,7.544496 0.211631,0.628708 -0.198403,2.334079 0.22486,2.774173 0.42326,0.440096 8.240374,3.638649 8.544594,3.646506 1.732727,0.05502 5.317226,-0.314353 5.105596,-0.502965 -0.211632,-0.188613 1.428511,-4.290933 1.428511,-4.290933 0,0 -10.369916,-9.988597 -12.605267,-12.77063 C 81.236632,16.29132 72.837536,9.0847533 71.871969,7.8823488 70.906402,6.6799453 66.343113,2.6955084 65.377549,2.0668008 64.411982,1.4380916 62.864432,1.2494797 62.216312,1.6895753 Z"
   id="path5" /><path
   style="fill:#c0c0c0;stroke-width:1.01955"
   d="m 68.816547,31.10525 c 0,0 7.129315,-6.978658 7.340946,-8.047461 0.21163,-1.068805 -5.740486,-7.583792 -7.235128,-9.925728 C 67.427721,10.790124 63.499323,5.9883668 63.076061,5.3596584 62.652799,4.73095 62.229538,1.6974346 62.229538,1.6974346 c 0,0 -2.976059,1.8939828 -4.047441,3.4107401 -1.058152,1.5167581 -5.065911,5.2497123 -5.065911,5.2497123 0,0 2.513115,8.660452 3.478683,12.385548 0.952336,3.732954 1.666591,8.629016 1.521095,8.80977 -0.912658,1.100239 -7.049954,9.965021 -7.049954,9.965021 0,0 -0.793612,4.298792 -0.05288,4.738888 0.740707,0.440095 5.039458,1.02165 5.37013,0.723014 0.648122,-0.573697 0.634896,-2.750598 0.634896,-2.750598 0,0 11.930686,-9.572079 12.314269,-10.043609 0.145489,-0.180754 -0.515854,-3.080671 -0.515854,-3.080671 z"
   id="path6" /><path
   style="fill:#c0c0c0;stroke-width:1.01955"
   d="m 44.505457,31.788971 c -0.03966,-0.950922 -2.380851,-5.461902 -2.80411,-6.475693 -0.423262,-1.013791 -1.322694,-6.019879 -2.499889,-6.019879 -1.163969,0 -6.560555,8.81763 -7.102861,9.642809 -0.529077,0.82518 -8.081652,10.491564 -9.047218,11.631099 -0.952339,1.139533 -5.317226,6.06703 -6.163749,6.892212 -0.846521,0.825178 -1.97081,2.224052 -1.97081,2.224052 l 21.612799,8.118192 7.803888,-0.526542 c 0,0 -4.563293,-7.285154 -5.634673,-8.927653 -1.071379,-1.642499 -2.341167,-4.298791 -2.341167,-4.298791 0,0 2.473437,-3.520765 4.087121,-6.051315 1.626912,-2.546267 4.113577,-5.265431 4.060669,-6.208491 z"
   id="path7" /><path
   style="fill:#c0c0c0;stroke-width:1.01955"
   d="m 12.337566,49.117734 c 0.05291,0.117883 0.330675,3.08067 0.18518,4.848911 -0.1455,1.7761 -0.727483,3.552201 -0.727483,3.552201 l -9.1566635,6.893051 c 0.1017194,0.08363 -0.00363,0.05689 -0.042962,0.01784 C 1.4921151,63.433168 6.4648104,51.970498 7.7081426,51.113882 9.9170369,49.589266 12.192071,48.764087 12.337566,49.117734 Z"
   id="path8"
   sodipodi:nodetypes="ccccccc" /><path
   style="fill:#c0c0c0;stroke-width:1.01955"
   d="m 20.472127,67.41314 c 0,0 3.425775,0.770167 15.15806,1.202403 11.732288,0.432237 17.499226,0.392943 17.499226,0.392943 l 26.797755,-2.326221 6.084386,-5.721244 c 0,0 -8.09488,-0.180752 -12.39363,-0.267201 -4.298752,-0.08646 -10.713812,-0.10216 -11.004803,-0.573696 -0.290993,-0.479389 7.235129,-3.725095 9.351436,-4.36952 2.116309,-0.652286 7.2219,-0.998075 8.385871,-1.728946 1.163971,-0.738733 15.872314,-5.666232 17.68441,-5.705527 1.825299,-0.04715 7.512882,2.035443 8.597502,1.815395 1.09785,-0.220047 -3.78292,-7.890286 -4.43103,-9.328455 -0.053,-0.125741 -2.632163,-7.599507 -2.711516,-7.740966 -0.608442,-1.108098 -2.473431,-3.984437 -3.650632,-3.638647 -1.16397,0.345789 -3.134782,2.986362 -4.589745,5.626936 -1.45496,2.640573 -2.32794,4.03159 -3.055418,4.676015 -0.727484,0.644425 -9.179489,3.858695 -10.356685,4.589568 -1.163972,0.738731 -4.669107,2.294784 -6.785417,2.813469 -2.116307,0.518683 -4.153252,0.518683 -5.687578,1.343863 -1.534322,0.825179 -3.425771,2.255489 -5.542082,3.591493 -2.116308,1.343864 -6.415058,4.424534 -7.830342,5.178983 -1.41528,0.75445 -2.685065,1.485323 -2.685065,1.485323 0,0 -10.224414,1.721087 -13.663414,2.711304 -3.412551,0.998073 -16.057491,5.839127 -15.171289,5.972728 z"
   id="path12" /></svg>
